# xmcd CD database file
#
# Track frame offsets:
#	150
#	31000
#	44020
#	59660
#	71787
#	85382
#	109915
#	125725
#	144612
#	157190
#
# Disc length: 2273 seconds
#
# Revision: 0
# Processed by: cddbd v1.5.1PL0 Copyright (c) Steve Scherf et al.
# Submitted via: CDex 1.51
#
DISCID=9c08df0a
DTITLE=Bud Powell - Lullaby of Birdland
DYEAR=1953
DGENRE=Jazz
TTITLE0=Lover Come Back To Me
TTITLE1=Lullaby of Birdland
TTITLE2=I Want To Be Happy
TTITLE3=I've Got You Under My Skin
TTITLE4=Ornithology
TTITLE5=Tea for Two
TTITLE6=It Could Happen To You
TTITLE7=Embraceable You
TTITLE8=Hallelujah
TTITLE9=How High The Moon
EXTD=YEAR: 1953
EXTT0=
EXTT1=
EXTT2=
EXTT3=
EXTT4=
EXTT5=
EXTT6=
EXTT7=
EXTT8=
EXTT9=
PLAYORDER=
